<svg xmlns="http://www.w3.org/2000/svg" id="art" role="img" aria-label="Generated typographic micro graphic" viewBox="0 0 1440 1200" style="color: var(--ink); background: rgb(244, 244, 239);" width="1440" height="1200"><style>
        @import url("../../../../fonts/fonts.css");
        svg { color: #10110f; }
        text { dominant-baseline: auto; }
      </style><rect x="0" y="0" width="1440" height="1200" fill="var(--bg)"/><svg x="360" y="120" width="720" height="960" viewBox="0 0 720 960" overflow="hidden" data-review-component="true"><g><g><rect x="64" y="64" width="592" height="277.3333333333333" fill="none" stroke="currentColor" stroke-width="1.2" stroke-dasharray="" opacity="0" transform=""/><g data-message-slot="review-node-001" data-lexical-use="review-lexical-001" data-visible-text="购买"><text x="360" y="250.5386644999186" fill="currentColor" font-family="&quot;Glow Sans SC&quot;, &quot;Noto Sans SC&quot;, &quot;Noto Sans KR&quot;, sans-serif" font-size="128" font-weight="900" line-height="1" letter-spacing="0" text-anchor="middle" opacity="1" transform="" data-message-slot="review-node-001" data-lexical-use="review-lexical-001" data-visible-text="购买">购买</text></g></g><g><rect x="64" y="341.3333333333333" width="394.6666666666667" height="277.3333333333333" fill="none" stroke="currentColor" stroke-width="1.2" stroke-dasharray="" opacity="0" transform=""/><g><g><rect x="68.992" y="448.5" width="126" height="63" fill="none" stroke="currentColor" stroke-width="1.2" stroke-dasharray="" opacity="0.75" transform=""/><line x1="68.992" y1="464.25" x2="194.99200000000002" y2="464.25" stroke="currentColor" stroke-width="1.2" stroke-dasharray="2 9" stroke-linecap="square" opacity="0.45"/><line x1="68.992" y1="480" x2="194.99200000000002" y2="480" stroke="currentColor" stroke-width="1.2" stroke-dasharray="2 9" stroke-linecap="square" opacity="0.45"/><line x1="68.992" y1="495.75" x2="194.99200000000002" y2="495.75" stroke="currentColor" stroke-width="1.2" stroke-dasharray="2 9" stroke-linecap="square" opacity="0.45"/><polyline points="68.992,475.09821367636323 77.992,487.70595238474925 86.992,495.7569418102206 95.992,456.7445519460534 104.992,466.4183773208922 113.992,456.3546553266804 122.992,492.89318634510136 131.99200000000002,479.9212865339847 140.99200000000002,473.3532186909645 149.99200000000002,502.03312671194675 158.99200000000002,474.11164103417934 167.99200000000002,465.8280683745705 176.99200000000002,501.41199537913934 185.99200000000002,452.8445447874506 194.99200000000002,465.0679831393682" fill="none" stroke="currentColor" stroke-width="1.2" stroke-dasharray="" opacity="1"/></g></g></g><g><rect x="458.6666666666667" y="341.3333333333333" width="197.33333333333334" height="554.6666666666666" fill="none" stroke="currentColor" stroke-width="1.2" stroke-dasharray="" opacity="0" transform=""/><g data-message-slot="review-node-002" data-lexical-use="review-lexical-002" data-visible-text="MICRO GRAPHIC"><text x="652" y="890.0000252723694" fill="currentColor" font-family="&quot;SUIT&quot;, &quot;Noto Sans&quot;, Arial, sans-serif" font-size="8" font-weight="400" line-height="1" letter-spacing="0" text-anchor="end" opacity="1" transform="" data-message-slot="review-node-002" data-lexical-use="review-lexical-002" data-visible-text="MICRO GRAPHIC">MICRO GRAPHIC</text></g></g><g><rect x="64" y="618.6666666666666" width="394.6666666666667" height="277.3333333333333" fill="none" stroke="currentColor" stroke-width="1.2" stroke-dasharray="" opacity="0" transform=""/><g><g><rect x="68.992" y="819.0079999999999" width="72" height="72" fill="transparent" stroke="none" stroke-dasharray="" opacity="1" transform=""/><rect x="68.992" y="819.0079999999999" width="4.32" height="4.32" fill="currentColor" stroke="none" stroke-dasharray="" opacity="1" transform=""/><rect x="73.792" y="819.0079999999999" width="4.32" height="4.32" fill="currentColor" stroke="none" stroke-dasharray="" opacity="1" transform=""/><rect x="78.592" y="819.0079999999999" width="4.32" height="4.32" fill="currentColor" stroke="none" stroke-dasharray="" opacity="1" transform=""/><rect x="83.392" y="819.0079999999999" width="4.32" height="4.32" fill="currentColor" stroke="none" stroke-dasharray="" opacity="1" transform=""/><rect x="88.19200000000001" y="819.0079999999999" width="4.32" height="4.32" fill="currentColor" stroke="none" stroke-dasharray="" opacity="1" transform=""/><rect x="92.992" y="819.0079999999999" width="4.32" height="4.32" fill="currentColor" stroke="none" stroke-dasharray="" opacity="1" transform=""/><rect x="102.59200000000001" y="819.0079999999999" width="4.32" height="4.32" fill="currentColor" stroke="none" stroke-dasharray="" opacity="1" transform=""/><rect x="112.19200000000001" y="819.0079999999999" width="4.32" height="4.32" fill="currentColor" stroke="none" stroke-dasharray="" opacity="1" transform=""/><rect x="116.992" y="819.0079999999999" width="4.32" height="4.32" fill="currentColor" stroke="none" stroke-dasharray="" opacity="1" transform=""/><rect x="121.792" y="819.0079999999999" width="4.32" height="4.32" fill="currentColor" stroke="none" stroke-dasharray="" opacity="1" transform=""/><rect x="126.592" y="819.0079999999999" width="4.32" height="4.32" fill="currentColor" stroke="none" stroke-dasharray="" opacity="1" transform=""/><rect x="131.392" y="819.0079999999999" width="4.32" height="4.32" fill="currentColor" stroke="none" stroke-dasharray="" opacity="1" transform=""/><rect x="136.192" y="819.0079999999999" width="4.32" height="4.32" fill="currentColor" stroke="none" stroke-dasharray="" opacity="1" transform=""/><rect x="68.992" y="823.8079999999999" width="4.32" height="4.32" fill="currentColor" stroke="none" stroke-dasharray="" opacity="1" transform=""/><rect x="73.792" y="823.8079999999999" width="4.32" height="4.32" fill="currentColor" stroke="none" stroke-dasharray="" opacity="1" transform=""/><rect x="78.592" y="823.8079999999999" width="4.32" height="4.32" fill="currentColor" stroke="none" stroke-dasharray="" opacity="1" transform=""/><rect x="83.392" y="823.8079999999999" width="4.32" height="4.32" fill="currentColor" stroke="none" stroke-dasharray="" opacity="1" transform=""/><rect x="88.19200000000001" y="823.8079999999999" width="4.32" height="4.32" fill="currentColor" stroke="none" stroke-dasharray="" opacity="1" transform=""/><rect x="112.19200000000001" y="823.8079999999999" width="4.32" height="4.32" fill="currentColor" stroke="none" stroke-dasharray="" opacity="1" transform=""/><rect x="121.792" y="823.8079999999999" width="4.32" height="4.32" fill="currentColor" stroke="none" stroke-dasharray="" opacity="1" transform=""/><rect x="131.392" y="823.8079999999999" width="4.32" height="4.32" fill="currentColor" stroke="none" stroke-dasharray="" opacity="1" transform=""/><rect x="68.992" y="828.608" width="4.32" height="4.32" fill="currentColor" stroke="none" stroke-dasharray="" opacity="1" transform=""/><rect x="78.592" y="828.608" width="4.32" height="4.32" fill="currentColor" stroke="none" stroke-dasharray="" opacity="1" transform=""/><rect x="88.19200000000001" y="828.608" width="4.32" height="4.32" fill="currentColor" stroke="none" stroke-dasharray="" opacity="1" transform=""/><rect x="92.992" y="828.608" width="4.32" height="4.32" fill="currentColor" stroke="none" stroke-dasharray="" opacity="1" transform=""/><rect x="97.792" y="828.608" width="4.32" height="4.32" fill="currentColor" stroke="none" stroke-dasharray="" opacity="1" transform=""/><rect x="102.59200000000001" y="828.608" width="4.32" height="4.32" fill="currentColor" stroke="none" stroke-dasharray="" opacity="1" transform=""/><rect x="112.19200000000001" y="828.608" width="4.32" height="4.32" fill="currentColor" stroke="none" stroke-dasharray="" opacity="1" transform=""/><rect x="121.792" y="828.608" width="4.32" height="4.32" fill="currentColor" stroke="none" stroke-dasharray="" opacity="1" transform=""/><rect x="126.592" y="828.608" width="4.32" height="4.32" fill="currentColor" stroke="none" stroke-dasharray="" opacity="1" transform=""/><rect x="68.992" y="833.4079999999999" width="4.32" height="4.32" fill="currentColor" stroke="none" stroke-dasharray="" opacity="1" transform=""/><rect x="83.392" y="833.4079999999999" width="4.32" height="4.32" fill="currentColor" stroke="none" stroke-dasharray="" opacity="1" transform=""/><rect x="88.19200000000001" y="833.4079999999999" width="4.32" height="4.32" fill="currentColor" stroke="none" stroke-dasharray="" opacity="1" transform=""/><rect x="92.992" y="833.4079999999999" width="4.32" height="4.32" fill="currentColor" stroke="none" stroke-dasharray="" opacity="1" transform=""/><rect x="97.792" y="833.4079999999999" width="4.32" height="4.32" fill="currentColor" stroke="none" stroke-dasharray="" opacity="1" transform=""/><rect x="107.392" y="833.4079999999999" width="4.32" height="4.32" fill="currentColor" stroke="none" stroke-dasharray="" opacity="1" transform=""/><rect x="112.19200000000001" y="833.4079999999999" width="4.32" height="4.32" fill="currentColor" stroke="none" stroke-dasharray="" opacity="1" transform=""/><rect x="68.992" y="838.208" width="4.32" height="4.32" fill="currentColor" stroke="none" stroke-dasharray="" opacity="1" transform=""/><rect x="73.792" y="838.208" width="4.32" height="4.32" fill="currentColor" stroke="none" stroke-dasharray="" opacity="1" transform=""/><rect x="78.592" y="838.208" width="4.32" height="4.32" fill="currentColor" stroke="none" stroke-dasharray="" opacity="1" transform=""/><rect x="83.392" y="838.208" width="4.32" height="4.32" fill="currentColor" stroke="none" stroke-dasharray="" opacity="1" transform=""/><rect x="88.19200000000001" y="838.208" width="4.32" height="4.32" fill="currentColor" stroke="none" stroke-dasharray="" opacity="1" transform=""/><rect x="92.992" y="838.208" width="4.32" height="4.32" fill="currentColor" stroke="none" stroke-dasharray="" opacity="1" transform=""/><rect x="102.59200000000001" y="838.208" width="4.32" height="4.32" fill="currentColor" stroke="none" stroke-dasharray="" opacity="1" transform=""/><rect x="116.992" y="838.208" width="4.32" height="4.32" fill="currentColor" stroke="none" stroke-dasharray="" opacity="1" transform=""/><rect x="121.792" y="838.208" width="4.32" height="4.32" fill="currentColor" stroke="none" stroke-dasharray="" opacity="1" transform=""/><rect x="126.592" y="838.208" width="4.32" height="4.32" fill="currentColor" stroke="none" stroke-dasharray="" opacity="1" transform=""/><rect x="131.392" y="838.208" width="4.32" height="4.32" fill="currentColor" stroke="none" stroke-dasharray="" opacity="1" transform=""/><rect x="136.192" y="838.208" width="4.32" height="4.32" fill="currentColor" stroke="none" stroke-dasharray="" opacity="1" transform=""/><rect x="68.992" y="843.0079999999999" width="4.32" height="4.32" fill="currentColor" stroke="none" stroke-dasharray="" opacity="1" transform=""/><rect x="88.19200000000001" y="843.0079999999999" width="4.32" height="4.32" fill="currentColor" stroke="none" stroke-dasharray="" opacity="1" transform=""/><rect x="92.992" y="843.0079999999999" width="4.32" height="4.32" fill="currentColor" stroke="none" stroke-dasharray="" opacity="1" transform=""/><rect x="121.792" y="843.0079999999999" width="4.32" height="4.32" fill="currentColor" stroke="none" stroke-dasharray="" opacity="1" transform=""/><rect x="126.592" y="843.0079999999999" width="4.32" height="4.32" fill="currentColor" stroke="none" stroke-dasharray="" opacity="1" transform=""/><rect x="136.192" y="843.0079999999999" width="4.32" height="4.32" fill="currentColor" stroke="none" stroke-dasharray="" opacity="1" transform=""/><rect x="68.992" y="847.8079999999999" width="4.32" height="4.32" fill="currentColor" stroke="none" stroke-dasharray="" opacity="1" transform=""/><rect x="73.792" y="847.8079999999999" width="4.32" height="4.32" fill="currentColor" stroke="none" stroke-dasharray="" opacity="1" transform=""/><rect x="92.992" y="847.8079999999999" width="4.32" height="4.32" fill="currentColor" stroke="none" stroke-dasharray="" opacity="1" transform=""/><rect x="97.792" y="847.8079999999999" width="4.32" height="4.32" fill="currentColor" stroke="none" stroke-dasharray="" opacity="1" transform=""/><rect x="112.19200000000001" y="847.8079999999999" width="4.32" height="4.32" fill="currentColor" stroke="none" stroke-dasharray="" opacity="1" transform=""/><rect x="68.992" y="852.608" width="4.32" height="4.32" fill="currentColor" stroke="none" stroke-dasharray="" opacity="1" transform=""/><rect x="92.992" y="852.608" width="4.32" height="4.32" fill="currentColor" stroke="none" stroke-dasharray="" opacity="1" transform=""/><rect x="97.792" y="852.608" width="4.32" height="4.32" fill="currentColor" stroke="none" stroke-dasharray="" opacity="1" transform=""/><rect x="102.59200000000001" y="852.608" width="4.32" height="4.32" fill="currentColor" stroke="none" stroke-dasharray="" opacity="1" transform=""/><rect x="112.19200000000001" y="852.608" width="4.32" height="4.32" fill="currentColor" stroke="none" stroke-dasharray="" opacity="1" transform=""/><rect x="116.992" y="852.608" width="4.32" height="4.32" fill="currentColor" stroke="none" stroke-dasharray="" opacity="1" transform=""/><rect x="121.792" y="852.608" width="4.32" height="4.32" fill="currentColor" stroke="none" stroke-dasharray="" opacity="1" transform=""/><rect x="126.592" y="852.608" width="4.32" height="4.32" fill="currentColor" stroke="none" stroke-dasharray="" opacity="1" transform=""/><rect x="131.392" y="852.608" width="4.32" height="4.32" fill="currentColor" stroke="none" stroke-dasharray="" opacity="1" transform=""/><rect x="136.192" y="852.608" width="4.32" height="4.32" fill="currentColor" stroke="none" stroke-dasharray="" opacity="1" transform=""/><rect x="68.992" y="857.4079999999999" width="4.32" height="4.32" fill="currentColor" stroke="none" stroke-dasharray="" opacity="1" transform=""/><rect x="73.792" y="857.4079999999999" width="4.32" height="4.32" fill="currentColor" stroke="none" stroke-dasharray="" opacity="1" transform=""/><rect x="112.19200000000001" y="857.4079999999999" width="4.32" height="4.32" fill="currentColor" stroke="none" stroke-dasharray="" opacity="1" transform=""/><rect x="126.592" y="857.4079999999999" width="4.32" height="4.32" fill="currentColor" stroke="none" stroke-dasharray="" opacity="1" transform=""/><rect x="68.992" y="862.208" width="4.32" height="4.32" fill="currentColor" stroke="none" stroke-dasharray="" opacity="1" transform=""/><rect x="83.392" y="862.208" width="4.32" height="4.32" fill="currentColor" stroke="none" stroke-dasharray="" opacity="1" transform=""/><rect x="107.392" y="862.208" width="4.32" height="4.32" fill="currentColor" stroke="none" stroke-dasharray="" opacity="1" transform=""/><rect x="116.992" y="862.208" width="4.32" height="4.32" fill="currentColor" stroke="none" stroke-dasharray="" opacity="1" transform=""/><rect x="121.792" y="862.208" width="4.32" height="4.32" fill="currentColor" stroke="none" stroke-dasharray="" opacity="1" transform=""/><rect x="126.592" y="862.208" width="4.32" height="4.32" fill="currentColor" stroke="none" stroke-dasharray="" opacity="1" transform=""/><rect x="131.392" y="862.208" width="4.32" height="4.32" fill="currentColor" stroke="none" stroke-dasharray="" opacity="1" transform=""/><rect x="136.192" y="862.208" width="4.32" height="4.32" fill="currentColor" stroke="none" stroke-dasharray="" opacity="1" transform=""/><rect x="68.992" y="867.0079999999999" width="4.32" height="4.32" fill="currentColor" stroke="none" stroke-dasharray="" opacity="1" transform=""/><rect x="78.592" y="867.0079999999999" width="4.32" height="4.32" fill="currentColor" stroke="none" stroke-dasharray="" opacity="1" transform=""/><rect x="88.19200000000001" y="867.0079999999999" width="4.32" height="4.32" fill="currentColor" stroke="none" stroke-dasharray="" opacity="1" transform=""/><rect x="92.992" y="867.0079999999999" width="4.32" height="4.32" fill="currentColor" stroke="none" stroke-dasharray="" opacity="1" transform=""/><rect x="97.792" y="867.0079999999999" width="4.32" height="4.32" fill="currentColor" stroke="none" stroke-dasharray="" opacity="1" transform=""/><rect x="112.19200000000001" y="867.0079999999999" width="4.32" height="4.32" fill="currentColor" stroke="none" stroke-dasharray="" opacity="1" transform=""/><rect x="116.992" y="867.0079999999999" width="4.32" height="4.32" fill="currentColor" stroke="none" stroke-dasharray="" opacity="1" transform=""/><rect x="131.392" y="867.0079999999999" width="4.32" height="4.32" fill="currentColor" stroke="none" stroke-dasharray="" opacity="1" transform=""/><rect x="136.192" y="867.0079999999999" width="4.32" height="4.32" fill="currentColor" stroke="none" stroke-dasharray="" opacity="1" transform=""/><rect x="68.992" y="871.8079999999999" width="4.32" height="4.32" fill="currentColor" stroke="none" stroke-dasharray="" opacity="1" transform=""/><rect x="78.592" y="871.8079999999999" width="4.32" height="4.32" fill="currentColor" stroke="none" stroke-dasharray="" opacity="1" transform=""/><rect x="83.392" y="871.8079999999999" width="4.32" height="4.32" fill="currentColor" stroke="none" stroke-dasharray="" opacity="1" transform=""/><rect x="88.19200000000001" y="871.8079999999999" width="4.32" height="4.32" fill="currentColor" stroke="none" stroke-dasharray="" opacity="1" transform=""/><rect x="107.392" y="871.8079999999999" width="4.32" height="4.32" fill="currentColor" stroke="none" stroke-dasharray="" opacity="1" transform=""/><rect x="116.992" y="871.8079999999999" width="4.32" height="4.32" fill="currentColor" stroke="none" stroke-dasharray="" opacity="1" transform=""/><rect x="136.192" y="871.8079999999999" width="4.32" height="4.32" fill="currentColor" stroke="none" stroke-dasharray="" opacity="1" transform=""/><rect x="68.992" y="876.608" width="4.32" height="4.32" fill="currentColor" stroke="none" stroke-dasharray="" opacity="1" transform=""/><rect x="78.592" y="876.608" width="4.32" height="4.32" fill="currentColor" stroke="none" stroke-dasharray="" opacity="1" transform=""/><rect x="83.392" y="876.608" width="4.32" height="4.32" fill="currentColor" stroke="none" stroke-dasharray="" opacity="1" transform=""/><rect x="88.19200000000001" y="876.608" width="4.32" height="4.32" fill="currentColor" stroke="none" stroke-dasharray="" opacity="1" transform=""/><rect x="97.792" y="876.608" width="4.32" height="4.32" fill="currentColor" stroke="none" stroke-dasharray="" opacity="1" transform=""/><rect x="107.392" y="876.608" width="4.32" height="4.32" fill="currentColor" stroke="none" stroke-dasharray="" opacity="1" transform=""/><rect x="112.19200000000001" y="876.608" width="4.32" height="4.32" fill="currentColor" stroke="none" stroke-dasharray="" opacity="1" transform=""/><rect x="126.592" y="876.608" width="4.32" height="4.32" fill="currentColor" stroke="none" stroke-dasharray="" opacity="1" transform=""/><rect x="136.192" y="876.608" width="4.32" height="4.32" fill="currentColor" stroke="none" stroke-dasharray="" opacity="1" transform=""/><rect x="68.992" y="881.4079999999999" width="4.32" height="4.32" fill="currentColor" stroke="none" stroke-dasharray="" opacity="1" transform=""/><rect x="78.592" y="881.4079999999999" width="4.32" height="4.32" fill="currentColor" stroke="none" stroke-dasharray="" opacity="1" transform=""/><rect x="83.392" y="881.4079999999999" width="4.32" height="4.32" fill="currentColor" stroke="none" stroke-dasharray="" opacity="1" transform=""/><rect x="88.19200000000001" y="881.4079999999999" width="4.32" height="4.32" fill="currentColor" stroke="none" stroke-dasharray="" opacity="1" transform=""/><rect x="92.992" y="881.4079999999999" width="4.32" height="4.32" fill="currentColor" stroke="none" stroke-dasharray="" opacity="1" transform=""/><rect x="102.59200000000001" y="881.4079999999999" width="4.32" height="4.32" fill="currentColor" stroke="none" stroke-dasharray="" opacity="1" transform=""/><rect x="107.392" y="881.4079999999999" width="4.32" height="4.32" fill="currentColor" stroke="none" stroke-dasharray="" opacity="1" transform=""/><rect x="116.992" y="881.4079999999999" width="4.32" height="4.32" fill="currentColor" stroke="none" stroke-dasharray="" opacity="1" transform=""/><rect x="126.592" y="881.4079999999999" width="4.32" height="4.32" fill="currentColor" stroke="none" stroke-dasharray="" opacity="1" transform=""/><rect x="131.392" y="881.4079999999999" width="4.32" height="4.32" fill="currentColor" stroke="none" stroke-dasharray="" opacity="1" transform=""/><rect x="68.992" y="886.208" width="4.32" height="4.32" fill="currentColor" stroke="none" stroke-dasharray="" opacity="1" transform=""/><rect x="73.792" y="886.208" width="4.32" height="4.32" fill="currentColor" stroke="none" stroke-dasharray="" opacity="1" transform=""/><rect x="83.392" y="886.208" width="4.32" height="4.32" fill="currentColor" stroke="none" stroke-dasharray="" opacity="1" transform=""/><rect x="88.19200000000001" y="886.208" width="4.32" height="4.32" fill="currentColor" stroke="none" stroke-dasharray="" opacity="1" transform=""/><rect x="92.992" y="886.208" width="4.32" height="4.32" fill="currentColor" stroke="none" stroke-dasharray="" opacity="1" transform=""/><rect x="97.792" y="886.208" width="4.32" height="4.32" fill="currentColor" stroke="none" stroke-dasharray="" opacity="1" transform=""/><rect x="102.59200000000001" y="886.208" width="4.32" height="4.32" fill="currentColor" stroke="none" stroke-dasharray="" opacity="1" transform=""/><rect x="107.392" y="886.208" width="4.32" height="4.32" fill="currentColor" stroke="none" stroke-dasharray="" opacity="1" transform=""/><rect x="116.992" y="886.208" width="4.32" height="4.32" fill="currentColor" stroke="none" stroke-dasharray="" opacity="1" transform=""/><rect x="121.792" y="886.208" width="4.32" height="4.32" fill="currentColor" stroke="none" stroke-dasharray="" opacity="1" transform=""/></g></g></g></g><g><rect x="1" y="1" width="718" height="958" fill="none" stroke="currentColor" stroke-width="1.2" stroke-dasharray="" opacity="0.9" transform=""/></g></svg></svg>