<svg xmlns="http://www.w3.org/2000/svg" id="art" role="img" aria-label="Generated typographic micro graphic" viewBox="0 0 1440 1200" style="color: var(--ink); background: rgb(244, 244, 239);" width="1440" height="1200"><style>
        @import url("../../../../fonts/fonts.css");
        svg { color: #10110f; }
        text { dominant-baseline: auto; }
      </style><rect x="0" y="0" width="1440" height="1200" fill="var(--bg)"/><svg x="158.39999999999998" y="225.59999999999997" width="1123.2" height="748.8000000000001" viewBox="0 0 1123.2 748.8000000000001" overflow="hidden" data-review-component="true"><g><g><rect x="64" y="64" width="663.4666666666667" height="206.93333333333337" fill="none" stroke="currentColor" stroke-width="1.2" stroke-dasharray="" opacity="0" transform=""/><g><g><rect x="68" y="68" width="72" height="72" fill="transparent" stroke="none" stroke-dasharray="" opacity="1" transform=""/><rect x="68" y="68" width="4.32" height="4.32" fill="currentColor" stroke="none" stroke-dasharray="" opacity="1" transform=""/><rect x="72.8" y="68" width="4.32" height="4.32" fill="currentColor" stroke="none" stroke-dasharray="" opacity="1" transform=""/><rect x="77.6" y="68" width="4.32" height="4.32" fill="currentColor" stroke="none" stroke-dasharray="" opacity="1" transform=""/><rect x="82.4" y="68" width="4.32" height="4.32" fill="currentColor" stroke="none" stroke-dasharray="" opacity="1" transform=""/><rect x="87.2" y="68" width="4.32" height="4.32" fill="currentColor" stroke="none" stroke-dasharray="" opacity="1" transform=""/><rect x="92" y="68" width="4.32" height="4.32" fill="currentColor" stroke="none" stroke-dasharray="" opacity="1" transform=""/><rect x="96.8" y="68" width="4.32" height="4.32" fill="currentColor" stroke="none" stroke-dasharray="" opacity="1" transform=""/><rect x="101.6" y="68" width="4.32" height="4.32" fill="currentColor" stroke="none" stroke-dasharray="" opacity="1" transform=""/><rect x="116" y="68" width="4.32" height="4.32" fill="currentColor" stroke="none" stroke-dasharray="" opacity="1" transform=""/><rect x="120.8" y="68" width="4.32" height="4.32" fill="currentColor" stroke="none" stroke-dasharray="" opacity="1" transform=""/><rect x="125.6" y="68" width="4.32" height="4.32" fill="currentColor" stroke="none" stroke-dasharray="" opacity="1" transform=""/><rect x="130.4" y="68" width="4.32" height="4.32" fill="currentColor" stroke="none" stroke-dasharray="" opacity="1" transform=""/><rect x="135.2" y="68" width="4.32" height="4.32" fill="currentColor" stroke="none" stroke-dasharray="" opacity="1" transform=""/><rect x="68" y="72.8" width="4.32" height="4.32" fill="currentColor" stroke="none" stroke-dasharray="" opacity="1" transform=""/><rect x="72.8" y="72.8" width="4.32" height="4.32" fill="currentColor" stroke="none" stroke-dasharray="" opacity="1" transform=""/><rect x="87.2" y="72.8" width="4.32" height="4.32" fill="currentColor" stroke="none" stroke-dasharray="" opacity="1" transform=""/><rect x="96.8" y="72.8" width="4.32" height="4.32" fill="currentColor" stroke="none" stroke-dasharray="" opacity="1" transform=""/><rect x="111.19999999999999" y="72.8" width="4.32" height="4.32" fill="currentColor" stroke="none" stroke-dasharray="" opacity="1" transform=""/><rect x="120.8" y="72.8" width="4.32" height="4.32" fill="currentColor" stroke="none" stroke-dasharray="" opacity="1" transform=""/><rect x="125.6" y="72.8" width="4.32" height="4.32" fill="currentColor" stroke="none" stroke-dasharray="" opacity="1" transform=""/><rect x="68" y="77.6" width="4.32" height="4.32" fill="currentColor" stroke="none" stroke-dasharray="" opacity="1" transform=""/><rect x="77.6" y="77.6" width="4.32" height="4.32" fill="currentColor" stroke="none" stroke-dasharray="" opacity="1" transform=""/><rect x="82.4" y="77.6" width="4.32" height="4.32" fill="currentColor" stroke="none" stroke-dasharray="" opacity="1" transform=""/><rect x="87.2" y="77.6" width="4.32" height="4.32" fill="currentColor" stroke="none" stroke-dasharray="" opacity="1" transform=""/><rect x="96.8" y="77.6" width="4.32" height="4.32" fill="currentColor" stroke="none" stroke-dasharray="" opacity="1" transform=""/><rect x="101.6" y="77.6" width="4.32" height="4.32" fill="currentColor" stroke="none" stroke-dasharray="" opacity="1" transform=""/><rect x="125.6" y="77.6" width="4.32" height="4.32" fill="currentColor" stroke="none" stroke-dasharray="" opacity="1" transform=""/><rect x="68" y="82.4" width="4.32" height="4.32" fill="currentColor" stroke="none" stroke-dasharray="" opacity="1" transform=""/><rect x="72.8" y="82.4" width="4.32" height="4.32" fill="currentColor" stroke="none" stroke-dasharray="" opacity="1" transform=""/><rect x="82.4" y="82.4" width="4.32" height="4.32" fill="currentColor" stroke="none" stroke-dasharray="" opacity="1" transform=""/><rect x="87.2" y="82.4" width="4.32" height="4.32" fill="currentColor" stroke="none" stroke-dasharray="" opacity="1" transform=""/><rect x="106.4" y="82.4" width="4.32" height="4.32" fill="currentColor" stroke="none" stroke-dasharray="" opacity="1" transform=""/><rect x="111.19999999999999" y="82.4" width="4.32" height="4.32" fill="currentColor" stroke="none" stroke-dasharray="" opacity="1" transform=""/><rect x="68" y="87.2" width="4.32" height="4.32" fill="currentColor" stroke="none" stroke-dasharray="" opacity="1" transform=""/><rect x="72.8" y="87.2" width="4.32" height="4.32" fill="currentColor" stroke="none" stroke-dasharray="" opacity="1" transform=""/><rect x="77.6" y="87.2" width="4.32" height="4.32" fill="currentColor" stroke="none" stroke-dasharray="" opacity="1" transform=""/><rect x="82.4" y="87.2" width="4.32" height="4.32" fill="currentColor" stroke="none" stroke-dasharray="" opacity="1" transform=""/><rect x="87.2" y="87.2" width="4.32" height="4.32" fill="currentColor" stroke="none" stroke-dasharray="" opacity="1" transform=""/><rect x="92" y="87.2" width="4.32" height="4.32" fill="currentColor" stroke="none" stroke-dasharray="" opacity="1" transform=""/><rect x="96.8" y="87.2" width="4.32" height="4.32" fill="currentColor" stroke="none" stroke-dasharray="" opacity="1" transform=""/><rect x="106.4" y="87.2" width="4.32" height="4.32" fill="currentColor" stroke="none" stroke-dasharray="" opacity="1" transform=""/><rect x="116" y="87.2" width="4.32" height="4.32" fill="currentColor" stroke="none" stroke-dasharray="" opacity="1" transform=""/><rect x="120.8" y="87.2" width="4.32" height="4.32" fill="currentColor" stroke="none" stroke-dasharray="" opacity="1" transform=""/><rect x="125.6" y="87.2" width="4.32" height="4.32" fill="currentColor" stroke="none" stroke-dasharray="" opacity="1" transform=""/><rect x="130.4" y="87.2" width="4.32" height="4.32" fill="currentColor" stroke="none" stroke-dasharray="" opacity="1" transform=""/><rect x="135.2" y="87.2" width="4.32" height="4.32" fill="currentColor" stroke="none" stroke-dasharray="" opacity="1" transform=""/><rect x="82.4" y="92" width="4.32" height="4.32" fill="currentColor" stroke="none" stroke-dasharray="" opacity="1" transform=""/><rect x="92" y="92" width="4.32" height="4.32" fill="currentColor" stroke="none" stroke-dasharray="" opacity="1" transform=""/><rect x="106.4" y="92" width="4.32" height="4.32" fill="currentColor" stroke="none" stroke-dasharray="" opacity="1" transform=""/><rect x="68" y="96.8" width="4.32" height="4.32" fill="currentColor" stroke="none" stroke-dasharray="" opacity="1" transform=""/><rect x="72.8" y="96.8" width="4.32" height="4.32" fill="currentColor" stroke="none" stroke-dasharray="" opacity="1" transform=""/><rect x="82.4" y="96.8" width="4.32" height="4.32" fill="currentColor" stroke="none" stroke-dasharray="" opacity="1" transform=""/><rect x="92" y="96.8" width="4.32" height="4.32" fill="currentColor" stroke="none" stroke-dasharray="" opacity="1" transform=""/><rect x="101.6" y="96.8" width="4.32" height="4.32" fill="currentColor" stroke="none" stroke-dasharray="" opacity="1" transform=""/><rect x="116" y="96.8" width="4.32" height="4.32" fill="currentColor" stroke="none" stroke-dasharray="" opacity="1" transform=""/><rect x="120.8" y="96.8" width="4.32" height="4.32" fill="currentColor" stroke="none" stroke-dasharray="" opacity="1" transform=""/><rect x="125.6" y="96.8" width="4.32" height="4.32" fill="currentColor" stroke="none" stroke-dasharray="" opacity="1" transform=""/><rect x="92" y="101.6" width="4.32" height="4.32" fill="currentColor" stroke="none" stroke-dasharray="" opacity="1" transform=""/><rect x="96.8" y="101.6" width="4.32" height="4.32" fill="currentColor" stroke="none" stroke-dasharray="" opacity="1" transform=""/><rect x="125.6" y="101.6" width="4.32" height="4.32" fill="currentColor" stroke="none" stroke-dasharray="" opacity="1" transform=""/><rect x="130.4" y="101.6" width="4.32" height="4.32" fill="currentColor" stroke="none" stroke-dasharray="" opacity="1" transform=""/><rect x="135.2" y="101.6" width="4.32" height="4.32" fill="currentColor" stroke="none" stroke-dasharray="" opacity="1" transform=""/><rect x="72.8" y="106.4" width="4.32" height="4.32" fill="currentColor" stroke="none" stroke-dasharray="" opacity="1" transform=""/><rect x="82.4" y="106.4" width="4.32" height="4.32" fill="currentColor" stroke="none" stroke-dasharray="" opacity="1" transform=""/><rect x="87.2" y="106.4" width="4.32" height="4.32" fill="currentColor" stroke="none" stroke-dasharray="" opacity="1" transform=""/><rect x="106.4" y="106.4" width="4.32" height="4.32" fill="currentColor" stroke="none" stroke-dasharray="" opacity="1" transform=""/><rect x="135.2" y="106.4" width="4.32" height="4.32" fill="currentColor" stroke="none" stroke-dasharray="" opacity="1" transform=""/><rect x="68" y="111.19999999999999" width="4.32" height="4.32" fill="currentColor" stroke="none" stroke-dasharray="" opacity="1" transform=""/><rect x="72.8" y="111.19999999999999" width="4.32" height="4.32" fill="currentColor" stroke="none" stroke-dasharray="" opacity="1" transform=""/><rect x="82.4" y="111.19999999999999" width="4.32" height="4.32" fill="currentColor" stroke="none" stroke-dasharray="" opacity="1" transform=""/><rect x="101.6" y="111.19999999999999" width="4.32" height="4.32" fill="currentColor" stroke="none" stroke-dasharray="" opacity="1" transform=""/><rect x="106.4" y="111.19999999999999" width="4.32" height="4.32" fill="currentColor" stroke="none" stroke-dasharray="" opacity="1" transform=""/><rect x="116" y="111.19999999999999" width="4.32" height="4.32" fill="currentColor" stroke="none" stroke-dasharray="" opacity="1" transform=""/><rect x="120.8" y="111.19999999999999" width="4.32" height="4.32" fill="currentColor" stroke="none" stroke-dasharray="" opacity="1" transform=""/><rect x="125.6" y="111.19999999999999" width="4.32" height="4.32" fill="currentColor" stroke="none" stroke-dasharray="" opacity="1" transform=""/><rect x="68" y="116" width="4.32" height="4.32" fill="currentColor" stroke="none" stroke-dasharray="" opacity="1" transform=""/><rect x="77.6" y="116" width="4.32" height="4.32" fill="currentColor" stroke="none" stroke-dasharray="" opacity="1" transform=""/><rect x="87.2" y="116" width="4.32" height="4.32" fill="currentColor" stroke="none" stroke-dasharray="" opacity="1" transform=""/><rect x="101.6" y="116" width="4.32" height="4.32" fill="currentColor" stroke="none" stroke-dasharray="" opacity="1" transform=""/><rect x="106.4" y="116" width="4.32" height="4.32" fill="currentColor" stroke="none" stroke-dasharray="" opacity="1" transform=""/><rect x="111.19999999999999" y="116" width="4.32" height="4.32" fill="currentColor" stroke="none" stroke-dasharray="" opacity="1" transform=""/><rect x="68" y="120.8" width="4.32" height="4.32" fill="currentColor" stroke="none" stroke-dasharray="" opacity="1" transform=""/><rect x="87.2" y="120.8" width="4.32" height="4.32" fill="currentColor" stroke="none" stroke-dasharray="" opacity="1" transform=""/><rect x="106.4" y="120.8" width="4.32" height="4.32" fill="currentColor" stroke="none" stroke-dasharray="" opacity="1" transform=""/><rect x="125.6" y="120.8" width="4.32" height="4.32" fill="currentColor" stroke="none" stroke-dasharray="" opacity="1" transform=""/><rect x="130.4" y="120.8" width="4.32" height="4.32" fill="currentColor" stroke="none" stroke-dasharray="" opacity="1" transform=""/><rect x="135.2" y="120.8" width="4.32" height="4.32" fill="currentColor" stroke="none" stroke-dasharray="" opacity="1" transform=""/><rect x="68" y="125.6" width="4.32" height="4.32" fill="currentColor" stroke="none" stroke-dasharray="" opacity="1" transform=""/><rect x="87.2" y="125.6" width="4.32" height="4.32" fill="currentColor" stroke="none" stroke-dasharray="" opacity="1" transform=""/><rect x="92" y="125.6" width="4.32" height="4.32" fill="currentColor" stroke="none" stroke-dasharray="" opacity="1" transform=""/><rect x="96.8" y="125.6" width="4.32" height="4.32" fill="currentColor" stroke="none" stroke-dasharray="" opacity="1" transform=""/><rect x="101.6" y="125.6" width="4.32" height="4.32" fill="currentColor" stroke="none" stroke-dasharray="" opacity="1" transform=""/><rect x="111.19999999999999" y="125.6" width="4.32" height="4.32" fill="currentColor" stroke="none" stroke-dasharray="" opacity="1" transform=""/><rect x="116" y="125.6" width="4.32" height="4.32" fill="currentColor" stroke="none" stroke-dasharray="" opacity="1" transform=""/><rect x="120.8" y="125.6" width="4.32" height="4.32" fill="currentColor" stroke="none" stroke-dasharray="" opacity="1" transform=""/><rect x="130.4" y="125.6" width="4.32" height="4.32" fill="currentColor" stroke="none" stroke-dasharray="" opacity="1" transform=""/><rect x="135.2" y="125.6" width="4.32" height="4.32" fill="currentColor" stroke="none" stroke-dasharray="" opacity="1" transform=""/><rect x="68" y="130.4" width="4.32" height="4.32" fill="currentColor" stroke="none" stroke-dasharray="" opacity="1" transform=""/><rect x="82.4" y="130.4" width="4.32" height="4.32" fill="currentColor" stroke="none" stroke-dasharray="" opacity="1" transform=""/><rect x="87.2" y="130.4" width="4.32" height="4.32" fill="currentColor" stroke="none" stroke-dasharray="" opacity="1" transform=""/><rect x="92" y="130.4" width="4.32" height="4.32" fill="currentColor" stroke="none" stroke-dasharray="" opacity="1" transform=""/><rect x="101.6" y="130.4" width="4.32" height="4.32" fill="currentColor" stroke="none" stroke-dasharray="" opacity="1" transform=""/><rect x="106.4" y="130.4" width="4.32" height="4.32" fill="currentColor" stroke="none" stroke-dasharray="" opacity="1" transform=""/><rect x="125.6" y="130.4" width="4.32" height="4.32" fill="currentColor" stroke="none" stroke-dasharray="" opacity="1" transform=""/><rect x="68" y="135.2" width="4.32" height="4.32" fill="currentColor" stroke="none" stroke-dasharray="" opacity="1" transform=""/><rect x="87.2" y="135.2" width="4.32" height="4.32" fill="currentColor" stroke="none" stroke-dasharray="" opacity="1" transform=""/><rect x="96.8" y="135.2" width="4.32" height="4.32" fill="currentColor" stroke="none" stroke-dasharray="" opacity="1" transform=""/><rect x="106.4" y="135.2" width="4.32" height="4.32" fill="currentColor" stroke="none" stroke-dasharray="" opacity="1" transform=""/><rect x="125.6" y="135.2" width="4.32" height="4.32" fill="currentColor" stroke="none" stroke-dasharray="" opacity="1" transform=""/></g></g></g><g><rect x="727.4666666666667" y="64" width="331.73333333333335" height="413.86666666666673" fill="none" stroke="currentColor" stroke-width="1.2" stroke-dasharray="" opacity="0" transform=""/><g data-message-slot="review-node-001" data-lexical-use="review-lexical-001" data-visible-text="MOD P31 / PORT 97"><text x="1053.2287999999999" y="78.9712033592224" fill="currentColor" font-family="&quot;Noto Sans Mono&quot;, &quot;SFMono-Regular&quot;, Menlo, Monaco, Consolas, monospace" font-size="8" font-weight="400" line-height="1" letter-spacing="0" text-anchor="end" opacity="1" transform="" data-message-slot="review-node-001" data-lexical-use="review-lexical-001" data-visible-text="MOD P31 / PORT 97">MOD P31 / PORT 97</text></g></g><g><rect x="64" y="270.9333333333334" width="663.4666666666667" height="206.93333333333337" fill="none" stroke="currentColor" stroke-width="1.2" stroke-dasharray="" opacity="0" transform=""/><g data-message-slot="review-node-002" data-lexical-use="review-lexical-002" data-visible-text="RUNNING"><text x="68" y="380.1679991722108" fill="currentColor" font-family="&quot;SUIT&quot;, &quot;Noto Sans&quot;, Arial, sans-serif" font-size="16" font-weight="400" line-height="1" letter-spacing="0" text-anchor="start" opacity="1" transform="" data-message-slot="review-node-002" data-lexical-use="review-lexical-002" data-visible-text="RUNNING">RUNNING</text></g></g><g><rect x="64" y="477.86666666666673" width="995.2" height="206.93333333333337" fill="none" stroke="currentColor" stroke-width="1.2" stroke-dasharray="" opacity="0" transform=""/><g data-message-slot="review-node-003" data-lexical-use="review-lexical-003" data-visible-text="저장"><text x="561.6" y="627.9253285725912" fill="currentColor" font-family="&quot;SUIT&quot;, &quot;Noto Sans KR&quot;, &quot;Apple SD Gothic Neo&quot;, sans-serif" font-size="128" font-weight="900" line-height="1" letter-spacing="0" text-anchor="middle" opacity="1" transform="" data-message-slot="review-node-003" data-lexical-use="review-lexical-003" data-visible-text="저장">저장</text></g></g></g><g/></svg></svg>